<svg id="Logo-group" xmlns="http://www.w3.org/2000/svg" viewBox="0 0 1437.7 762.58"><title>LogoAutoRace</title>
<style type="text/css">

	path {
    fill: #C70000;
	}


</style>
<path d="M1355.48,307.65c-12.81,9.1-52.36,16.89-83.05,13.27-8.55-1.28-16.54-3.65-24.71-6.22A105.3,105.3,0,0,1,1222.46,303c-7.54-4.8-14.79-10.05-22.37-14.78-5.3-3.31-10.92-6.11-16.44-9.06-4.47-2.39-9-4.69-13.51-7-6-3-11.87-6.21-17.93-9.05-5.84-2.74-11.83-5.17-17.78-7.66-7.26-3-14.51-6.09-21.85-8.95-3.57-1.39-45.58-16.55-56.4-17.5-.82-.09-1.61,0-.53,1.28a12.7,12.7,0,0,0,4.4,2.59c10.49,4.5,21.29,8.36,31.41,13.56,6.26,3.21,25.86,13.89,29.29,16,11.23,7,22.48,14,33.48,21.28,6.07,4,11.6,8.9,17.52,13.18,6.89,5,14,9.75,20.93,14.64,7.63,5.35,14.88,11.35,22.94,16,9.8,5.6,19.14,11.79,30.21,15.57a142.68,142.68,0,0,0,51.59,8.08,96.51,96.51,0,0,0,10.32-1.1c5.63-.81,11.34-1.37,16.85-2.72,9.06-2.21,18-4.76,26.12-9.77a193.27,193.27,0,0,1,17.21-9.73,39.59,39.59,0,0,1,7.81-2.22c111.29-2.89,199.44,20.09,276.66,94.44,7.69,7.86,15.26,15.75,21.85,24.56,3,4.81,6.26,9.57,8.65,14.71,4.53,9.72.49,16.84-10.06,18.75-12.81,2.31-25.59,4.79-38.42,6.95-5.42.91-11,.94-16.41,1.85a87.45,87.45,0,0,0-13.62,3.44c-7.32,2.49-13.1,6.34-16.22,14.36a62.62,62.62,0,0,0-4.07,14.48c-1.07,7.88-2.44,15.72-3.65,23.59-.7,4.55-.44,3.64-1,7.27-.79,5.29-1.53,9.05-2.57,14.38-1.42,7.26-2,9.54-2.53,11.31-.67,2.31-1.31,4.2-1.77,5.49a14.29,14.29,0,0,0,5.56-2.11,19.86,19.86,0,0,0,4.34-4.5c10.23-13.41,10.39-33.3,10.39-33.3,1.77-11.85,1.82-16.36,5.87-21.73a28.71,28.71,0,0,1,7.53-6.73c5.12-3.42,31.55-6.36,62.38-12a2.18,2.18,0,0,1,2.21.67s.42.58,0,4q-2.37,14.14-4.9,28.26c-.28,1.6-.78,3.17-1.15,4.76-1.37,5.74-2.55,11.53-4.13,17.2-2.78,10-5.57,20.1-11.6,28.72-3.13,4.49-7.17,8.33-12.89,9.74-7.89,1.94-38.4,9.28-53,11.78-32.08,5.75-76.62,8.71-85.56,9.11-1.91.09-3.85-.67-6.31-1.14a27.82,27.82,0,0,1,1.73-3.85,169.59,169.59,0,0,0,12.55-21.61,128.23,128.23,0,0,0,9.34-24.31,133.59,133.59,0,0,0,4.28-43.46,134.27,134.27,0,0,0-76.13-112.53A140.3,140.3,0,0,0,1398,395.4c-13-1.66-32-3.89-54.27,3.13A113.9,113.9,0,0,0,1316,412a78.29,78.29,0,0,0-16.86,14.64c-1.89,2.32-4,5.15-4,5.15-1.95,2.66-3.48,5-4.54,6.62,2.32-1.84,5.72-4.42,10-7.25,7.22-4.78,21.68-14.2,42.39-19.17a117.91,117.91,0,0,1,33-3.18c21.77,1.08,37.51,8.21,45.77,12a143.71,143.71,0,0,1,52,41.5,125.7,125.7,0,0,1,14.79,30.36,198.29,198.29,0,0,1,5.22,51.78,77,77,0,0,1-3.16,16.11c-2.75,7.71-5.45,15.45-8.76,22.91a91.63,91.63,0,0,1-5.72,10.6c-1.72,2.81-8.58,11.93-12.08,15.33-4.36,4.23-9.72,9.24-12.71,11.74-20.22,17.14-59.81,24.21-70.86,23.08-1.22-.12-2.45-.1-3.67-.13-7.73-.22-42.22-1.4-71.61-23.3-7.21-5.29-15.52-7.87-24.08-10.08a345.33,345.33,0,0,0-70.65-10.62c-20-.91-40-.56-60-.45-26.39.15-52.51,3.86-78.66,6.89-11.54,1.33-23.2,2.55-34.44,5.28s-22.82,4.15-34.37,5.25c-24.72,2.36-49.44,2.2-73.78-2.88a123.29,123.29,0,0,1-34.83-12.56A128.27,128.27,0,0,1,875,588.9a47.5,47.5,0,0,0,10.19,1.41,51.42,51.42,0,0,0,26.84-7c7.44-4.12,15.1-8.19,19.59-15.86a52.81,52.81,0,0,0,5.47-12.18c1.86-6.61-3.76-17.57-10.16-21.46-9.44-5.75-19.28-5.6-29.42-2.32-2.7.87-5.47,1.55-8.15,2.48-2.86,1-5.67,2.13-8.47,3.28-11.26,4.64-22.35,9.76-33.8,13.88a127.91,127.91,0,0,1-55.93,7.23,182.34,182.34,0,0,1-31.87-5.54,200.54,200.54,0,0,1-43.4-17.43,65.42,65.42,0,0,1-9-6.08,91,91,0,0,1-8.83-7.72,79.27,79.27,0,0,0,9.74,3.27c24.73,6.59,80.28.3,106.19-19.68a20.65,20.65,0,0,0,5.88-16.89c-1.1-10.86-5.55-19.51-15.6-25.32a53.91,53.91,0,0,0-9.64-4.34,80.35,80.35,0,0,0-14-3.51,128.13,128.13,0,0,0-15.83-1.46c-11.86-.64-17.79-1-20.76-1.17-12-.81-23.84-2-35.56-5.49-7.21-2.11-14.42-4-21.47-6.72-9.21-3.6-17.24-9-25-14.86a140.46,140.46,0,0,1-16.83-14.93,161.43,161.43,0,0,1-12.13-14.59,65.42,65.42,0,0,1-5.74-9.2c-.79-1.55-1.23-2.58-1.38-3a39.28,39.28,0,0,1-2.51-8.62,52.58,52.58,0,0,0,9.21,8c5,3.44,11.45,6.07,22,8.68,16.74,4.14,33.54,3.91,50.36.13,6.16-1.38,12.49-2,18.65-3.41,8.75-2,17.39-4.41,26.14-6.39,14.67-3.31,29.51-5.65,44.43-7.67a193.08,193.08,0,0,1,61.52,1.45c7.66,1.42,14.81,4.37,22.34,5.91,13.82,2.84,26.77,9.8,41.58,8.25,6.9-.72,13.15-1.81,18.39-6.88,3.64-3.53,7.4-6.69,10.14-11.21,4.59-7.55,4.54-14.91,1.51-22.77a66.28,66.28,0,0,0-17.06-25.66c-5.95-5.39-13-9.68-19.93-13.83-6.43-3.85-13.32-6.95-20.09-10.21a44.92,44.92,0,0,0-7.47-2.64c-20.08-5.59-40.45-7.78-61.18-4.71-3.78.56-7.48,1.62-11.74,1.39,3.3-1.86,6.49-4,9.92-5.53,7.36-3.38,14.84-6.5,22.29-9.68a41.25,41.25,0,0,1,5.72-2.12,310.64,310.64,0,0,1,40.13-8,197.08,197.08,0,0,1,50,.48c11.18,1.45,21.2,5.57,31.55,9.1,4.35,1.48,8.31,4.08,12.46,6.13,9.43,4.68,18.71,9.68,28.34,13.91,10.58,4.64,20.93,9.87,32.18,13a66.63,66.63,0,0,0,26.69,1.67,27.38,27.38,0,0,0,15.72-7.69,26.27,26.27,0,0,0,6.65-12.66c1.67-8,1.44-16-3.78-23.39s-11.47-12.86-18-18.67c-21.13-17.77-83.68-41.27-107.18-47.94,3.91-.31,9.43-.7,16-1a415,415,0,0,1,46.95.68c9.84.73,11.11,1,18,1.72,4.17.45,7.18.73,7.58.77,15.4,1.52,171.7,29.55,246.53,59.54,34.4,13.13,50.65,32.39,53.32,37.52A23.2,23.2,0,0,1,1355.48,307.65ZM1136.1,459.2a221,221,0,0,1,29.23-7.13c14.39-2.48,22.27-2.61,25.41-2.23,7.65.94,15.46,2.25,22.63,4.93,10.09,3.78,16.24,13.84,7.48,24.91-7.38,9.33-17.32,15.37-28.68,18.84-9.17,2.8-18.63,1.79-28,1.19a86.47,86.47,0,0,1-14.44-2.22,156.66,156.66,0,0,1-32.17-11.31c-8.6-4.17-17.58-7.67-25.82-12.44-6.15-3.56-29.72-12.15-58.67-8.21-8.47,1.15-25,3.66-41.32,15.67a81.09,81.09,0,0,0-16.3,16,51.33,51.33,0,0,1,8.86-3.53,60.6,60.6,0,0,1,6.25-1.42,132.39,132.39,0,0,1,15.63-2.45c8.63-.61,17,1.3,25.34,3.42,20.67,5.23,38.27,15.66,53.69,30.14,8,7.52,16,15.09,24.3,22.28,23.09,23.93,68.93,30,97.12,25.52a13.89,13.89,0,0,0,2.92-.88l12.93-3.72a122.68,122.68,0,0,0,40.56-20.69c7.26-5.54,14.57-11,22.09-16.23,8.58-5.92,17.49-8,27.43-2.4,3.21,1.8,11.51,5.89,14.37,15,.8,2.54,2.84,9-1,14.6-3.1,4.48-8.62,6.34-13.37,5.93a15.74,15.74,0,0,1-9.17-4.11,58.07,58.07,0,0,0,7,9.71s1.43,1.57,2.93,3.07c22.58,22.61,61.43,24.12,87.19,13.86,4.9-2.35,10.29-4.46,14.09-8.11a83.93,83.93,0,0,0,13.92-17.65c3-5.14,4.34-11.34,6.31-17.1,3.31-9.69,2.85-19.73,2.38-29.73-1-22.21-25.78-39.77-45.37-41.15-8.53-.6-16.52,2-16.47,2.5s6.84-.75,14.14,2.66a20.57,20.57,0,0,1,12.15,15.76c1.37,7-1.45,14.8-7.48,18.47-11.45,7-25.74,6-36.94-1.68-8.19-5.6-14-13.52-21-20.2-5.22-4.94-9.39-11-14.67-16.07-25.29-23.67-58.38-32.14-85.58-35.08-24.69-2.66-43,.37-47,1.08A153.08,153.08,0,0,0,1136.1,459.2ZM1578.62,452c8.68-1.34,18.16-2.65,27.57-4.32a46.74,46.74,0,0,0,11-3.27c4.64-2.1,5.55-6.37,2.17-9.93-10.83-10.82-26.51-26.3-45-39.53a147.59,147.59,0,0,0-23.91-13.14q-13.68-5.9-27.53-11.41a26.51,26.51,0,0,0-8.3-1.91,7.31,7.31,0,0,0-5.24,2c-1.66,1.86-.77,4.16.92,6,4.62,5.12,37.92,39.09,47.55,53.09,1.26,1.83,2.33,3.8,3.46,5.71,2.46,4.15,4.74,8.41,7.42,12.41C1570.81,450.77,1574.23,451.69,1578.62,452Z" transform="translate(-247.04 -185.89)"/><path d="M474,620.51c5.52,1.22,27.41,5.88,44.62,4.4,7.17-.61,12.92-2.24,16.54-6.52a19.68,19.68,0,0,0,3.12-5.44,19,19,0,0,0,.87-11.13c-3-10.28-10.08-16.47-19.87-20.71-15.72-6.81-32.37-5.71-48.73-6.82-10.57-.72-21.24.09-31.84-.35a155.74,155.74,0,0,1-21.26-2.37,182.27,182.27,0,0,1-34.8-8.63,155.65,155.65,0,0,1-38.24-20.07c-15.15-11.1-21.36-20.67-24.26-24.71a59.35,59.35,0,0,1-3.14-5.49c15,6.57,69.79,15.18,90.93,11.64,13.52-2.26,26.51-6,38.7-12.27a25.36,25.36,0,0,0,11.52-12.32,14.72,14.72,0,0,0-.79-13.56c-5.38-9.67-14.51-13.35-24.58-14.91-5.38-.84-11-.46-16.5-.18a268.15,268.15,0,0,1-50.7-2.16c-12.39-1.75-22.08-3.12-34.1-8.65-6.19-2.85-18.06-8.46-28.43-20.89a72.16,72.16,0,0,1-9.52-14.77A71.12,71.12,0,0,0,315,432.29a74.84,74.84,0,0,0,33.19-1.67,76.2,76.2,0,0,0,14.66-5.33c5.39-2.67,12.16-6.07,18-13.19a42.53,42.53,0,0,0,5.66-9c-1.12.22-2.83.51-4.93.71-4.92.47-21.27,1.33-42.52-12.4-14.94-9.66-19.82-18.46-29.16-28C298.6,351.89,279.71,338.36,247,331c15.79-8.59,38.63-13.48,59.5-13.12,8.81.17,17.18,3.37,25,7.43,17.59,9.15,35.79,16.55,55.54,19.38,11.32,1.62,21.65-1,31.33-7.38,6-4,9.45-9.37,12.06-15.56,2.2-5.2,5-10.16,5.5-16.07,1.45-16.05-5.19-28.06-17.94-37.05a67,67,0,0,0-37.16-12.31C366,256,351,260.94,351,260.94a144.23,144.23,0,0,0-17,6.78c2.55-3.28,24.26-30.61,51.21-39.23a115.45,115.45,0,0,1,23.28-4.5,107.29,107.29,0,0,1,20.59.54,129.22,129.22,0,0,1,26,5.53c5.79,1.88,14.55,3.77,28.52,13.39,17.4,12,34.89,23.87,53.58,33.91a105.27,105.27,0,0,0,21.93,9,78.31,78.31,0,0,0,14.84,2.81,68.84,68.84,0,0,0,17.36-.74c5.72-1,15.38-2.7,24.26-10.09,5.35-4.45,9.41-9.32,11.22-16.2,1.76-6.72-3.7-16.87-11-18.84-13.22-3.58-17.55-3.78-38.52-11.66-6.07-2.28-14.16-5.39-22.71-12.3a70,70,0,0,1-15.23-17.24,26.17,26.17,0,0,1-3.35-7.67c1.54.59,3.05,1.25,4.62,1.75,4.24,1.37,8.49,2.69,12.75,4,16.26,4.13,43.29,6.35,64.25,5.71,15.47-.47,30.89-2.42,46.32-3.82,5.27-.48,10.53-1.12,15.74-2,9.45-1.58,18.86-3.39,28.29-5.09,4-.72,8-1.38,12-2.13,6-1.14,12-2.28,18-3.52a177,177,0,0,1,47.48-3,202.56,202.56,0,0,1,33.8,5.21A219.45,219.45,0,0,1,846.34,200c8.83,3.32,16.23,6.68,22,9.49a739.13,739.13,0,0,0-75.83,23.86c-9.82,3.72-18.31,7.23-21.84,8.7-14.06,5.83-27.56,11.46-44,20.15-3.1,1.64-7.86,4-13.83,7.71-7.58,4.72-15.16,9.45-22.47,14.57-11,7.68-21.66,15.74-32.53,23.56-8.86,6.37-17.62,13.19-28,16.68a257.63,257.63,0,0,1-31.33,8c-11.59,2.32-23.34,3.79-35,5.54-27.61,4.2-63.82,12.46-81,33.09a77.23,77.23,0,0,0-12.56,54.71c1.48,10.88,3.43,21.75,6,32.43,1.45,6.07,4.33,11.86,7,17.56,2.41,5.14,5.39,10,8.17,15,9.77,17.42,20.93,29.76,27.14,36.73,3.26,3.66,7.27,8.15,13.12,13.67a190.25,190.25,0,0,0,26.79,21.1s6.11,5.1,11.32,5.55c-.84-2.61-2-6.54-3.31-11.36-4.81-18.39-10-38.41-6.18-62.41,1.15-7.17,4-23.65,15.61-40.32a87.9,87.9,0,0,1,6.38-8.1c-6.38,16.74-12.06,33.4-12.69,51.59a127.08,127.08,0,0,0,41.12,96.36c13.62,12.26,29.29,20.67,46.06,27,24.41,9.17,45.74,5.72,53.76,4.55a119.37,119.37,0,0,0,49.56-19.22l4-3.08C763.13,604.88,752.26,620,726,636c-24.57,12.8-50.35,13-76.83,10.42-13.58-1.34-27.24-2.15-40.88-2.67A34.45,34.45,0,0,0,595.17,646c-18.66,7.07-37.58,6.27-56.68,2.72-4-.74-8-1.62-12-2.41C503.6,641.8,491,634,491,634A79.32,79.32,0,0,1,474,620.51Z" transform="translate(-247.04 -185.89)"/><path d="M1127.25,808c-10.77,0-20.55-.1-30.34,0-7.62.11-15-1.45-22.22-3.44-6.26-1.71-9.81-6.33-9.89-12.67a32.15,32.15,0,0,1,3.19-14.11c5.44-11.76,10.72-23.6,15.91-35.47,2.19-5,3.89-10.21,6-15.23,7.11-16.71,19.47-27.09,37.39-30.62,16.48-3.24,33.2-3.35,49.89-3.21.43,0,1,0,41.5,1.4a23.64,23.64,0,0,1,13.25,4.09c.91.66,7.44,5.51,7.84,12.88.2,3.73-1.47,6.4-2.4,8.77q-5.74,14.66-11.82,29.18c-2.66,6.32-5.69,12.48-8.48,18.75-.41.92-2.52,6.41-5.68,13.37a44.41,44.41,0,0,1-6.33,10.64,39.47,39.47,0,0,1-4.52,4.65l-.2.17a57.11,57.11,0,0,1-5.65,4c-7.21,4.36-18.46,4.73-18.46,4.73C1159.61,806.72,1143.59,808,1127.25,808Zm36.69-85.61v.21c-10,0-20,0-30,0-2.43,0-4.86.42-7.29.68a5.79,5.79,0,0,0-5,4c-1.79,4.3-3.74,8.53-5.55,12.81q-5.54,13.13-11,26.29c-.39.94-.69,1.92-1,2.89-2.64,8.31-1.63,9.75,7.11,9.8q16.83.11,33.67.08c9.59,0,19.19,0,28.78-.27,7.17-.23,8.94-1.92,11.27-8.15,2.26-6.06,4.75-12,7.35-18s5.5-11.77,8.16-17.7a22.72,22.72,0,0,0,1.58-5.25c1-5.8-.44-7.45-6.26-7.43C1185.16,722.37,1174.55,722.35,1163.94,722.35Z" transform="translate(-247.04 -185.89)"/><path d="M1003.14,947.55c-16.86.1-23.83.07-26.32,0-.31,0-1.44-.05-3-.06-3.46,0-5.24.15-6,.14-4.23-.08-7.58-6-8.82-7.79-7.89-11.29-15.67-22.67-23.57-34a152.68,152.68,0,0,0-9.76-13.06c-3.79-4.34-6.84-3.94-9.21,1.25-4.29,9.41-8.18,19-12.14,28.57-3.33,8-6.53,16.14-10.07,24.91-11,0-22.07.63-34.31-.69,2.78-6.58,5.15-12.27,7.61-17.93.79-1.82,1.94-3.5,2.69-5.34,3.76-9.18,7.4-18.41,11.17-27.59q5.31-12.92,10.79-25.77c4-9.3,8.2-18.48,11.86-27.9,1.4-3.61,3.4-4.39,6.88-4.37,25.71.13,51.42-.06,77.13.22,9.34.1,18.68,1.21,28,1.85a18.28,18.28,0,0,1,4.1.84,14.74,14.74,0,0,1,7.06,4.2,11.85,11.85,0,0,1,3.05,6.89,10.72,10.72,0,0,1-.46,3.84A157.08,157.08,0,0,1,1019.09,882c-5,9.38-6.84,11.81-9.11,14.15a38.1,38.1,0,0,1-7.54,6,42.77,42.77,0,0,1-14.33,4.91c-1,.13-2.06.06-3,.28-6.62,1.46-7.71,4.21-3.8,9.74,8.21,11.59,15.5,21.59,15.5,21.59.37.45,1.15,1.39,2.16,2.71C1000.86,944,1002.27,946.16,1003.14,947.55Zm-45.67-81v0c-8.15,0-16.3-.09-24.45,0-4.76.07-5.44.84-7,5.27-.78,2.27-1.89,4.43-2.88,6.63-2.68,5.95-1.42,8.51,4.94,8.63,15.27.3,30.55.36,45.83.28a28.8,28.8,0,0,0,8.93-1.77c4.66-1.59,7.9-8.07,6.89-13-1-4.65-3.11-6-9.69-6.09C972.54,866.48,965,866.51,957.46,866.51Z" transform="translate(-247.04 -185.89)"/><path d="M838.45,695.24c-1.49,3.94-3.83,10-6.91,17.39-2.46,5.91-3.35,7.16-7.62,17.71-2.48,6.12-5.32,12.12-7.77,18.29-2.62,6.59-5.89,12.92-8.71,19.43-1.9,4.39-.55,7.14,4.28,7.66a216.68,216.68,0,0,0,22.54,1.33c9.16,0,18.32-.58,27.48-.91.82,0,1.63,0,2.45,0,12.1,0,13-1.95,17.85-13,3.18-7.17,6.09-14.46,9.15-21.68,2.7-6.35,5.44-12.68,8.16-19,.48-1.12.88-2.28,1.37-3.4,3.43-7.79,6.88-15.57,10.42-23.58h32.67c-9.37,21.27-15.58,37.1-19.61,47.94,0,0-2.61,7-7.48,18.29a157.24,157.24,0,0,1-14,26.13,35.63,35.63,0,0,1-5.69,7.05c-5.13,4.7-11.11,6.88-15.1,8.3-2.18.77-3.94,1.27-5.18,1.58-7.72,1.91-15.46,3.35-23.51,3.27-20-.2-40-.21-60-.17,0,0-12.74,0-21.08-6a14.36,14.36,0,0,1-2.1-1.91,14.83,14.83,0,0,1-3.32-9.05,17.53,17.53,0,0,1,1.55-8.1c5-11.75,9.49-23.73,14.36-35.54,2.34-5.68,13.16-32.87,16.3-42.35a14.6,14.6,0,0,1,5.39-7.75,13.85,13.85,0,0,1,3.37-1.57C815,693.37,836.65,695.09,838.45,695.24Z" transform="translate(-247.04 -185.89)"/><path d="M750.18,807.07h-7.41c-9,0-18,.08-26.95,0-4.55-.06-4.78-.45-5.21-4.88-.27-2.84-.77-5.68-.79-8.53,0-3.51-2.07-4.6-5-4.87-1.42-.13-2.85-.09-4.28-.09-10,0-20,0-30,0-2,0-4-.25-7-.45,3.18-3.5,4.38-7.29,8.14-9.52,2.48-1.47,4.51-4,6.24-6.4,4.41-6.14,10.1-8.59,17.69-8.2,9.61.5,9.66.15,9-9.33Q704,744.4,703.08,734c-.17-2,0-4.69-2.6-4.88a8,8,0,0,0-5.29,2.06c-2.37,2.15-41.85,43.31-47.46,49.23-6.14,6.48-12,13.19-18,19.8-3.66,4-8.27,5.57-13.67,5.68-7.34.15-14.66.75-22,1.06-2.21.09-4.44-.17-8.11-.33,3.33-3.52,5.78-6.23,8.36-8.82,9.35-9.37,18.83-18.61,28.08-28.08,4-4.14,21.32-21.67,25.9-26.31,6.28-6.36,12.13-13.14,18.35-19.56,4.89-5,21.33-22.7,22.58-24.36a11.35,11.35,0,0,1,3.33-2.93,13.17,13.17,0,0,1,7-1.47c10.61.15,21.23,0,31.85,0,2.18,0,4.37.31,7.26.53Z" transform="translate(-247.04 -185.89)"/><path d="M1025.52,946.17c2.09-2.19,4.23-4.32,6.25-6.57,5.5-6.11,11.81-11.59,17-17.79a298.16,298.16,0,0,1,22.74-23.67c14.56-14,21.11-21.68,27.66-28.08,9.23-9.69,20.9-23.28,24.66-26.88a16.71,16.71,0,0,1,3.35-2.63,14.72,14.72,0,0,1,7.1-2q17.14-.14,34.29,0c4.83,0,5.21.8,5.9,5.81,1.56,11.28,3.49,22.5,4.91,33.8,1.06,8.48,1.51,17,2.32,25.54.21,2.22.8,4.4,1.1,6.61,1.42,10.68,2.83,21.36,4.15,32.05a29.15,29.15,0,0,1-.35,5c-12.7.47-25.21.2-38,.21l-3.37-18.29h-44.63c.45-1.3.47-2.1.85-2.33,7.37-4.57,11-12.74,17.7-18.06,2.42-1.93,4.61-3.08,7.63-3,3.67.09,7.35.06,11-.06,2.91-.09,4.75-1.6,4.36-4.64-1.11-8.67-2.16-17.36-3.73-25.94-.75-4.09-3.46-4.65-6.53-1.54-4.4,4.46-58.07,59.6-69.2,70.55-1.5,1.48-3.7,3.11-5.62,3.16-10.35.31-20.71.15-31.07.15Z" transform="translate(-247.04 -185.89)"/><path d="M1372.78,839c-1.2,3.53-2.17,6.79-3.42,10-2,5-4,10.07-6.36,15a4.88,4.88,0,0,1-3.36,2.07,65.45,65.45,0,0,1-9.15.54q-38.57,0-77.14-.09a71.46,71.46,0,0,0-7.34.16,10.86,10.86,0,0,0-5.56,2.1,11,11,0,0,0-3.62,5.7s-3.7,11.46-13.86,33.25c-.06.13-.24.56-.49,1.12-4.49,10-2.21,13.56,8.6,13.55l49,0c10.2,0,20.41,0,30.61,0,2.16,0,4.33.26,7,.43-3,7.15-5.9,13.51-8.35,20-1.5,4-4.14,4.94-8,4.9-14.49-.14-29,0-43.47,0-17.75,0-35.51-.24-53.26.07-6,.11-10.79-2.13-15.28-5.24-4.1-2.83-4.79-7.68-3.81-12.09,1.18-5.28,3.39-10.35,5.28-15.46,1.2-3.23,2.62-6.38,4-9.57,3.43-8.16,6.9-16.3,10.28-24.48,2.19-5.3,4.56-10.13,6.93-17.33.71-2.15.63-2.08,1-2.92,3.3-8.32,10.18-12.62,12.76-14.19,1.07-.65,4.76-2.81,13.94-5a102.88,102.88,0,0,1,20.5-2.77c29.38-.27,58.77-.09,88.15,0C1369.77,838.65,1371.33,838.88,1372.78,839Z" transform="translate(-247.04 -185.89)"/><path d="M1511.42,838.73c-3.87,9.06-7,16.67-10.44,24.18-.38.85-1.95,1.45-3.05,1.63a34.53,34.53,0,0,1-5.49.17l-71.63,0c-1.43,0-2.86,0-4.28.13-2.74.19-4.17,1.58-5.18,4.29q-4.63,12.47-10.27,24.54c-3.49,7.51-6.14,15.42-8.9,23.25-1.55,4.38-.33,5.86,4.49,6.23,1.83.14,3.67.07,5.51.07l66.73,0h7.16c-3.68,8-6.78,15-10.19,21.81-.59,1.18-2.42,2-3.85,2.43s-3.24.14-4.87.15c-6.06,0-31.24,1.91-104.08.08l-7.55-.2c.45-1.3,1.13-3.27,2-5.67,2.27-6.42,5.35-15.07,9.36-24.9,2.75-6.73,1.86-4.7,5.75-13.36,3.24-7.22,6.56-14.41,9.86-21.61.17-.37.44-.69.59-1.07q6.69-17.16,13.38-34.32c.59-1.51,1.43-2.92,2.14-4.38,1.18-2.42,2.92-3.8,5.79-3.55,1.82.16,3.67,0,5.51.05l103.47.07Z" transform="translate(-247.04 -185.89)"/><path d="M959.69,807c5.48-12.34,10.6-23.59,15.46-34.94,3.59-8.39,6.72-17,10.28-25.37,2-4.79,7.93-19.62,8-22.41.06-1.88-1.51-2.62-3.44-2.62-15.47,0-34.9-.18-34.9-.18-1.38,0-3.78.1-6.8.08.62-1.68,1.62-4.27,3-7.4,1.76-4.07,1.67-3.62,2.62-5.85,1.35-3.17,2.58-6.4,3.71-9.65a4.73,4.73,0,0,1,5.09-3.5c1.43,0,2.86,0,4.29,0,5,0,44.61-1,114.55.06l7.47.12-11.17,25.54c-2.22.15-4.61.42-7,.44-11,.08-22.06.26-33.08,0-4.69-.09-7.79,1.44-9.56,5.82s-3.83,8.94-5.76,13.4c-1.83,4.23-3.73,8.44-5.47,12.71-5.22,12.77-10.09,25.7-15.72,38.28-1.89,4.24-4.11,8.3-5.52,12.76a4.27,4.27,0,0,1-3,2.47C982,807.43,971.28,807,959.69,807Z" transform="translate(-247.04 -185.89)"/><path d="M1473,883c-1,3-1.68,5.53-2.72,7.86-1.66,3.72-3.77,7.24-5.31,11-1,2.43-2.47,3.63-5,3.62-1.48,0-36.26-.38-46.49-.21l-2,0c.14-.8.32-1.82.56-3,0,0,.2-1,.43-2a89.52,89.52,0,0,1,3-10.06c1.35-3.6,2-5.43,3.13-6.26,1.4-1.07,3.37-1.37,6.53-1.37q20.51,0,41,0C1468.19,882.67,1470.19,882.88,1473,883Z" transform="translate(-247.04 -185.89)"/></svg>
